<svg width="12" height="20" viewBox="0 0 12 20" fill="none" xmlns="http://www.w3.org/2000/svg">
<path d="M1.11273 11.0296L8.96084 18.9204C9.08974 19.0513 9.2431 19.1552 9.41207 19.2261C9.58104 19.297 9.76227 19.3335 9.94532 19.3335C10.1284 19.3335 10.3096 19.297 10.4786 19.2261C10.6475 19.1552 10.8009 19.0513 10.9298 18.9204C11.1881 18.6587 11.333 18.3047 11.333 17.9358C11.333 17.5668 11.1881 17.2128 10.9298 16.9512L4.06617 9.96818L10.9298 3.05501C11.1881 2.79334 11.333 2.43937 11.333 2.07041C11.333 1.70145 11.1881 1.34748 10.9298 1.08581C10.8014 0.953845 10.6482 0.848862 10.4792 0.776942C10.3103 0.705022 10.1288 0.667596 9.94532 0.666828C9.76186 0.667596 9.58038 0.705022 9.41139 0.776942C9.2424 0.848862 9.08926 0.953845 8.96084 1.08581L1.11273 8.97659C0.971985 9.10737 0.85966 9.2661 0.782832 9.44277C0.706005 9.61944 0.666342 9.81022 0.666342 10.0031C0.666342 10.196 0.706005 10.3867 0.782832 10.5634C0.859659 10.7401 0.971985 10.8988 1.11273 11.0296V11.0296Z" fill="#262626"/>
</svg>
