<svg width="30" height="30" viewBox="0 0 30 30" fill="none" xmlns="http://www.w3.org/2000/svg">
<path d="M23.3876 9.01249C23.2714 8.89533 23.1331 8.80234 22.9808 8.73888C22.8285 8.67542 22.6651 8.64275 22.5001 8.64275C22.335 8.64275 22.1717 8.67542 22.0193 8.73888C21.867 8.80234 21.7288 8.89533 21.6126 9.01249L12.3001 18.3375L8.38756 14.4125C8.26691 14.2959 8.12448 14.2043 7.96841 14.1428C7.81234 14.0813 7.64569 14.0511 7.47796 14.054C7.31024 14.0569 7.14472 14.0928 6.99088 14.1597C6.83703 14.2266 6.69786 14.3231 6.58131 14.4437C6.46476 14.5644 6.37312 14.7068 6.31161 14.8629C6.25011 15.019 6.21995 15.1856 6.22285 15.3533C6.22575 15.5211 6.26166 15.6866 6.32853 15.8404C6.39539 15.9943 6.49191 16.1334 6.61256 16.25L11.4126 21.05C11.5288 21.1672 11.667 21.2601 11.8193 21.3236C11.9717 21.3871 12.135 21.4197 12.3001 21.4197C12.4651 21.4197 12.6285 21.3871 12.7808 21.3236C12.9331 21.2601 13.0714 21.1672 13.1876 21.05L23.3876 10.85C23.5144 10.7329 23.6157 10.5909 23.685 10.4328C23.7542 10.2746 23.79 10.1039 23.79 9.93124C23.79 9.75862 23.7542 9.58786 23.685 9.42974C23.6157 9.27161 23.5144 9.12955 23.3876 9.01249V9.01249Z" />
</svg>
