<svg width="24" height="24" viewBox="0 0 24 24" fill="none" xmlns="http://www.w3.org/2000/svg">
<circle cx="12" cy="12" r="12" fill="#DFDFDF"/>
<path d="M18.6838 7.33382L18.6851 7.3352C18.8686 7.52721 19.0144 7.75797 19.112 8.01428C19.2097 8.27063 19.2566 8.54605 19.2493 8.82343C19.2419 9.10082 19.1805 9.37285 19.0697 9.62274C18.9589 9.87258 18.8015 10.0941 18.6087 10.2747L18.594 10.2885L18.58 10.303L11.5118 17.6762C11.5115 17.6764 11.5113 17.6767 11.5111 17.6769C11.1529 18.0479 10.6755 18.25 10.1849 18.25C9.69424 18.25 9.21687 18.0479 8.85875 17.677C8.85849 17.6767 8.85824 17.6764 8.85798 17.6762L5.31293 13.9782C5.31268 13.9779 5.31244 13.9777 5.31219 13.9774C4.95543 13.6027 4.75 13.0895 4.75 12.5483C4.75 12.0069 4.95571 11.4933 5.31293 11.1185L5.31351 11.1179C5.4915 10.9307 5.70154 10.7839 5.93059 10.6843C6.15957 10.5848 6.40395 10.5341 6.64996 10.5341C6.89598 10.5341 7.14037 10.5848 7.36934 10.6843C7.59798 10.7837 7.80766 10.9301 7.98545 11.1168C7.98577 11.1172 7.9861 11.1175 7.98643 11.1179L9.6261 12.8559L10.1673 13.4295L10.713 12.8602L16.0088 7.33604L16.0109 7.33382C16.1889 7.14661 16.3989 6.99982 16.628 6.90028L16.3291 6.21242L16.628 6.90028C16.857 6.80077 17.1013 6.75 17.3474 6.75C17.5934 6.75 17.8378 6.80077 18.0667 6.90028C18.2958 6.99982 18.5058 7.14661 18.6838 7.33382Z" fill="white" stroke="#DFDFDF" stroke-width="1.5"/>
</svg>
