<svg width="22" height="18" viewBox="0 0 22 18" fill="none" xmlns="http://www.w3.org/2000/svg">
<path d="M10 8.2C9.55817 8.2 9.2 8.55817 9.2 9C9.2 9.44183 9.55817 9.8 10 9.8V8.2ZM21.5657 9.56569C21.8781 9.25327 21.8781 8.74673 21.5657 8.43431L16.4745 3.34315C16.1621 3.03073 15.6556 3.03073 15.3431 3.34315C15.0307 3.65557 15.0307 4.1621 15.3431 4.47452L19.8686 9L15.3431 13.5255C15.0307 13.8379 15.0307 14.3444 15.3431 14.6569C15.6556 14.9693 16.1621 14.9693 16.4745 14.6569L21.5657 9.56569ZM10 9.8L21 9.8V8.2L10 8.2V9.8Z" fill="black"/>
<path fill-rule="evenodd" clip-rule="evenodd" d="M2.125 2H11.875C11.944 2 12 2.05596 12 2.125V6.75H14V2.125C14 0.951395 13.0486 0 11.875 0H2.125C0.951395 0 0 0.951395 0 2.125V15.875C0 17.0486 0.951395 18 2.125 18H11.875C13.0486 18 14 17.0486 14 15.875V11.25H12V15.875C12 15.944 11.944 16 11.875 16H2.125C2.05596 16 2 15.944 2 15.875V2.125C2 2.05596 2.05596 2 2.125 2Z" fill="#262626"/>
</svg>
