<svg width="197" height="65" viewBox="0 0 197 65" fill="none" xmlns="http://www.w3.org/2000/svg">
<path d="M0.567492 64V35.69H7.48349L14.5135 49.256L17.2875 55.526H17.4775C17.1355 52.524 16.5655 48.458 16.5655 45.076V35.69H23.0255V64H16.1095L9.11749 50.358L6.34349 44.164H6.15349C6.45749 47.318 7.02749 51.194 7.02749 54.614V64H0.567492ZM39.733 64.532C32.019 64.532 26.775 58.984 26.775 49.712C26.775 40.44 32.019 35.196 39.733 35.196C47.447 35.196 52.691 40.478 52.691 49.712C52.691 58.984 47.447 64.532 39.733 64.532ZM39.733 58.68C43.457 58.68 45.775 55.184 45.775 49.712C45.775 44.24 43.457 41.01 39.733 41.01C36.009 41.01 33.729 44.24 33.729 49.712C33.729 55.184 36.009 58.68 39.733 58.68ZM58.5923 64L53.4623 35.69H60.3783L62.1643 48.61C62.5443 51.574 62.9243 54.538 63.3043 57.578H63.4563C63.9883 54.538 64.5583 51.536 65.1283 48.61L68.0163 35.69H73.7543L76.6803 48.61C77.2503 51.498 77.7443 54.538 78.3143 57.578H78.5043C78.8463 54.538 79.2263 51.536 79.5683 48.61L81.4303 35.69H87.8523L82.9503 64H74.4003L71.8543 51.688C71.3983 49.522 71.0183 47.242 70.7523 45.114H70.6003C70.2203 47.242 69.8783 49.522 69.4603 51.688L66.9903 64H58.5923ZM100.027 64V35.69H107.361L111.845 47.926C112.415 49.56 112.871 51.346 113.403 53.056H113.593C114.163 51.346 114.619 49.56 115.151 47.926L119.483 35.69H126.855V64H120.661V54.31C120.661 51.498 121.193 47.28 121.573 44.506H121.383L119.027 51.27L115.227 61.606H111.503L107.665 51.27L105.385 44.506H105.233C105.575 47.28 106.107 51.498 106.107 54.31V64H100.027ZM131.831 64V35.69H149.767V41.352H138.633V46.596H148.095V52.296H138.633V58.3H150.185V64H131.831ZM154.246 64V35.69H172.182V41.352H161.048V46.596H170.51V52.296H161.048V58.3H172.6V64H154.246ZM182.134 64V41.352H174.496V35.69H196.612V41.352H188.936V64H182.134Z" fill="#262626"/>
<path d="M91.6443 64.532C89.2883 64.532 87.6163 62.67 87.6163 60.314C87.6163 57.958 89.2883 56.134 91.6443 56.134C93.9623 56.134 95.6723 57.958 95.6723 60.314C95.6723 62.67 93.9623 64.532 91.6443 64.532Z" fill="#FFC224"/>
<path d="M19.1366 0.762C21.6026 0.762 23.3846 2.166 23.3846 4.2C23.3846 6.234 21.6026 7.656 19.1366 7.656C16.6706 7.656 14.8886 6.234 14.8886 4.2C14.8886 2.166 16.6706 0.762 19.1366 0.762ZM19.1366 2.31C17.7146 2.31 16.7066 3.048 16.7066 4.2C16.7066 5.37 17.7146 6.09 19.1366 6.09C20.5586 6.09 21.5846 5.37 21.5846 4.2C21.5846 3.048 20.5586 2.31 19.1366 2.31ZM18.2726 9.402H20.1626V15.99H18.2726V9.402ZM25.5086 0.0419995H27.3806V16.494H25.5086V0.0419995ZM14.0246 10.41L13.7906 8.844C16.7606 8.844 20.8826 8.808 24.4466 8.268L24.5726 9.654C20.9186 10.356 16.9586 10.392 14.0246 10.41ZM41.2752 0.0419995H43.1832V16.494H41.2752V0.0419995ZM33.9492 4.11H35.4612V5.28C35.4612 8.772 33.6612 12.084 30.8532 13.38L29.8272 11.922C32.3652 10.77 33.9492 7.98 33.9492 5.28V4.11ZM34.3452 4.11H35.8212V5.28C35.8212 7.854 37.4412 10.536 40.0152 11.652L38.9892 13.092C36.1632 11.868 34.3452 8.664 34.3452 5.28V4.11ZM30.3132 2.814H39.4032V4.326H30.3132V2.814ZM33.9492 0.383999H35.8392V3.624H33.9492V0.383999ZM56.1347 10.356C59.6627 10.356 61.9127 11.508 61.9127 13.434C61.9127 15.324 59.6627 16.476 56.1347 16.476C52.6247 16.476 50.3747 15.324 50.3747 13.434C50.3747 11.508 52.6247 10.356 56.1347 10.356ZM56.1347 11.796C53.7227 11.796 52.2467 12.39 52.2467 13.434C52.2467 14.442 53.7227 15.036 56.1347 15.036C58.5647 15.036 60.0407 14.442 60.0407 13.434C60.0407 12.39 58.5647 11.796 56.1347 11.796ZM50.5187 0.833999H61.0307V2.328H50.5187V0.833999ZM48.8087 7.566H63.6227V9.06H48.8087V7.566ZM54.6227 4.524H56.4947V7.962H54.6227V4.524ZM59.9327 0.833999H61.8047V2.202C61.8047 3.516 61.8047 4.884 61.3547 6.576L59.4827 6.378C59.9327 4.686 59.9327 3.48 59.9327 2.202V0.833999ZM68.2293 10.32H70.1553V16.494H68.2293V10.32ZM73.8993 10.32H75.8253V16.494H73.8993V10.32ZM64.6113 9.312H79.5153V10.842H64.6113V9.312ZM72.0273 0.653999C75.5013 0.653999 77.8593 2.058 77.8593 4.29C77.8593 6.486 75.5013 7.908 72.0273 7.908C68.5713 7.908 66.1953 6.486 66.1953 4.29C66.1953 2.058 68.5713 0.653999 72.0273 0.653999ZM72.0273 2.166C69.6693 2.166 68.1213 2.958 68.1213 4.29C68.1213 5.604 69.6693 6.396 72.0273 6.396C74.3853 6.396 75.9333 5.604 75.9333 4.29C75.9333 2.958 74.3853 2.166 72.0273 2.166ZM91.4119 0.0599992H93.3019V12.372H91.4119V0.0599992ZM92.7439 5.28H95.6239V6.846H92.7439V5.28ZM80.4859 1.932H90.1699V3.426H80.4859V1.932ZM85.3279 4.182C87.6679 4.182 89.3059 5.442 89.3059 7.296C89.3059 9.168 87.6679 10.41 85.3279 10.41C82.9699 10.41 81.3319 9.168 81.3319 7.296C81.3319 5.442 82.9699 4.182 85.3279 4.182ZM85.3279 5.64C84.0319 5.64 83.1499 6.27 83.1499 7.296C83.1499 8.34 84.0319 8.952 85.3279 8.952C86.6239 8.952 87.5059 8.34 87.5059 7.296C87.5059 6.27 86.6239 5.64 85.3279 5.64ZM84.3919 0.0419995H86.2639V2.67H84.3919V0.0419995ZM82.8979 14.64H93.9679V16.17H82.8979V14.64ZM82.8979 11.418H84.7879V15.288H82.8979V11.418ZM111.293 0.0419995H113.183V8.466H111.293V0.0419995ZM102.401 9.258H113.183V13.434H104.273V15.414H102.437V12.048H111.311V10.716H102.401V9.258ZM102.437 14.856H113.669V16.35H102.437V14.856ZM103.715 0.473999H105.281V1.716C105.281 4.758 103.535 7.422 100.565 8.412L99.6475 6.918C102.239 6.072 103.715 3.93 103.715 1.716V0.473999ZM104.075 0.473999H105.623V1.716C105.623 3.858 107.099 5.856 109.637 6.63L108.719 8.106C105.785 7.17 104.075 4.668 104.075 1.716V0.473999ZM119.644 1.392H121.192V4.092C121.192 8.07 119.41 11.724 116.458 13.164L115.324 11.598C117.952 10.41 119.644 7.242 119.644 4.092V1.392ZM120.004 1.392H121.534V4.092C121.534 7.116 123.208 10.14 125.8 11.292L124.684 12.804C121.786 11.436 120.004 7.926 120.004 4.092V1.392ZM127.114 0.0239997H129.004V16.512H127.114V0.0239997ZM142.233 0.0419995H144.141V11.958H142.233V0.0419995ZM143.583 4.848H146.463V6.414H143.583V4.848ZM137.715 1.302H139.713C139.713 5.64 136.851 8.754 132.045 10.212L131.253 8.7C135.339 7.494 137.715 5.1 137.715 2.184V1.302ZM131.937 1.302H138.705V2.832H131.937V1.302ZM133.719 14.64H144.789V16.17H133.719V14.64ZM133.719 10.752H135.609V15.288H133.719V10.752ZM151.044 1.464H158.73V9.222H151.044V1.464ZM156.876 2.976H152.898V7.728H156.876V2.976ZM161.412 0.0419995H163.302V12.066H161.412V0.0419995ZM162.744 4.938H165.624V6.486H162.744V4.938ZM152.898 14.64H163.968V16.17H152.898V14.64ZM152.898 10.914H154.788V15.36H152.898V10.914ZM177.251 0.0419995H179.141V9.33H177.251V0.0419995ZM178.637 3.678H181.463V5.226H178.637V3.678ZM168.629 10.158H179.141V16.296H168.629V10.158ZM177.305 11.652H170.483V14.784H177.305V11.652ZM167.027 0.852H168.917V7.494H167.027V0.852ZM167.027 6.702H168.359C170.663 6.702 173.111 6.54 175.757 6.018L175.973 7.548C173.255 8.106 170.753 8.268 168.359 8.268H167.027V6.702Z" fill="#262626"/>
</svg>
