<svg width="187" height="182" viewBox="0 0 187 182" fill="none" xmlns="http://www.w3.org/2000/svg">
<path d="M0.503779 181V152.69H7.41978L14.4498 166.256L17.2238 172.526H17.4138C17.0718 169.524 16.5018 165.458 16.5018 162.076V152.69H22.9618V181H16.0458L9.05378 167.358L6.27978 161.164H6.08978C6.39378 164.318 6.96378 168.194 6.96378 171.614V181H0.503779ZM39.6693 181.532C31.9553 181.532 26.7113 175.984 26.7113 166.712C26.7113 157.44 31.9553 152.196 39.6693 152.196C47.3833 152.196 52.6273 157.478 52.6273 166.712C52.6273 175.984 47.3833 181.532 39.6693 181.532ZM39.6693 175.68C43.3933 175.68 45.7113 172.184 45.7113 166.712C45.7113 161.24 43.3933 158.01 39.6693 158.01C35.9453 158.01 33.6653 161.24 33.6653 166.712C33.6653 172.184 35.9453 175.68 39.6693 175.68ZM58.5286 181L53.3986 152.69H60.3146L62.1006 165.61C62.4806 168.574 62.8606 171.538 63.2406 174.578H63.3926C63.9246 171.538 64.4946 168.536 65.0646 165.61L67.9526 152.69H73.6906L76.6166 165.61C77.1866 168.498 77.6806 171.538 78.2506 174.578H78.4406C78.7826 171.538 79.1626 168.536 79.5046 165.61L81.3666 152.69H87.7886L82.8866 181H74.3366L71.7906 168.688C71.3346 166.522 70.9546 164.242 70.6886 162.114H70.5366C70.1566 164.242 69.8146 166.522 69.3966 168.688L66.9266 181H58.5286ZM90.0903 181V152.69H97.4243L101.908 164.926C102.478 166.56 102.934 168.346 103.466 170.056H103.656C104.226 168.346 104.682 166.56 105.214 164.926L109.546 152.69H116.918V181H110.724V171.31C110.724 168.498 111.256 164.28 111.636 161.506H111.446L109.09 168.27L105.29 178.606H101.566L97.7283 168.27L95.4483 161.506H95.2963C95.6383 164.28 96.1703 168.498 96.1703 171.31V181H90.0903ZM121.894 181V152.69H139.83V158.352H128.696V163.596H138.158V169.296H128.696V175.3H140.248V181H121.894ZM144.31 181V152.69H162.246V158.352H151.112V163.596H160.574V169.296H151.112V175.3H162.664V181H144.31ZM172.198 181V158.352H164.56V152.69H186.676V158.352H179V181H172.198Z" fill="#FF234A"/>
<path d="M20.0744 118.248C22.5044 118.248 24.2324 120.498 24.2324 124.044C24.2324 127.59 22.5044 129.858 20.0744 129.858C17.6444 129.858 15.9164 127.59 15.9164 124.044C15.9164 120.498 17.6444 118.248 20.0744 118.248ZM20.0744 119.958C18.6704 119.958 17.7164 121.488 17.7164 124.044C17.7164 126.618 18.6704 128.166 20.0744 128.166C21.4964 128.166 22.4504 126.618 22.4504 124.044C22.4504 121.488 21.4964 119.958 20.0744 119.958ZM27.4184 117.024H29.2904V133.512H27.4184V117.024ZM23.6564 123.162H28.2284V124.674H23.6564V123.162ZM43.131 117.042H45.021V133.53H43.131V117.042ZM32.511 127.932H33.879C37.227 127.932 39.261 127.842 41.601 127.41L41.781 128.976C39.405 129.426 37.281 129.516 33.879 129.516H32.511V127.932ZM32.511 118.554H40.341V120.102H34.383V128.526H32.511V118.554ZM55.5676 122.424H60.0316V123.954H55.5676V122.424ZM51.3736 118.392H52.9036V121.092C52.9036 124.962 51.2116 128.634 48.3856 130.092L47.1976 128.58C49.7896 127.338 51.3736 124.17 51.3736 121.092V118.392ZM51.7516 118.392H53.2636V121.092C53.2636 124.134 54.8296 127.122 57.3676 128.292L56.2336 129.804C53.3896 128.382 51.7516 124.908 51.7516 121.092V118.392ZM59.0956 117.024H60.9676V133.512H59.0956V117.024ZM63.1622 125.268H78.0302V126.78H63.1622V125.268ZM64.9982 122.154H76.3562V123.684H64.9982V122.154ZM64.9982 117.708H76.2122V119.202H66.8882V122.676H64.9982V117.708ZM64.9982 131.622H76.4822V133.152H64.9982V131.622ZM64.9982 128.292H66.8702V132.018H64.9982V128.292ZM80.5668 127.788L80.2608 120.588L80.2068 118.428H82.2948L82.2408 120.588L81.9528 127.788H80.5668ZM81.2508 132.252C80.4768 132.252 79.8648 131.64 79.8648 130.794C79.8648 129.93 80.4768 129.336 81.2508 129.336C82.0428 129.336 82.6368 129.93 82.6368 130.794C82.6368 131.64 82.0428 132.252 81.2508 132.252ZM91.0317 118.536H92.4897V121.506C92.4897 125.07 91.2117 128.526 88.7097 130.056L87.5217 128.652C89.8797 127.266 91.0317 124.314 91.0317 121.506V118.536ZM91.3737 118.536H92.8497V121.38C92.8497 124.152 93.8937 126.888 96.1257 128.112L95.0097 129.606C92.4897 128.166 91.3737 124.89 91.3737 121.38V118.536ZM100.014 117.042H101.814V133.494H100.014V117.042ZM97.6737 123.558H100.644V125.088H97.6737V123.558ZM96.4137 117.348H98.1957V132.702H96.4137V117.348ZM103.612 130.02H118.516V131.568H103.612V130.02ZM110.092 126.672H111.964V130.65H110.092V126.672ZM105.358 118.194H116.734V123.396H107.266V126.456H105.394V121.902H114.862V119.706H105.358V118.194ZM105.394 125.682H117.112V127.212H105.394V125.682ZM119.433 125.232H134.337V126.744H119.433V125.232ZM126.057 126.204H127.965V129.858H126.057V126.204ZM121.269 131.622H132.699V133.17H121.269V131.622ZM121.269 128.31H123.159V132.036H121.269V128.31ZM126.867 117.402C130.377 117.402 132.699 118.698 132.699 120.768C132.699 122.82 130.377 124.116 126.867 124.116C123.357 124.116 121.035 122.82 121.035 120.768C121.035 118.698 123.357 117.402 126.867 117.402ZM126.867 118.914C124.563 118.914 123.051 119.598 123.051 120.768C123.051 121.92 124.563 122.586 126.867 122.586C129.189 122.586 130.683 121.92 130.683 120.768C130.683 119.598 129.189 118.914 126.867 118.914ZM139.188 118.464H146.874V126.222H139.188V118.464ZM145.02 119.976H141.042V124.728H145.02V119.976ZM149.556 117.042H151.446V129.066H149.556V117.042ZM150.888 121.938H153.768V123.486H150.888V121.938ZM141.042 131.64H152.112V133.17H141.042V131.64ZM141.042 127.914H142.932V132.36H141.042V127.914ZM165.395 117.042H167.285V126.33H165.395V117.042ZM166.781 120.678H169.607V122.226H166.781V120.678ZM156.773 127.158H167.285V133.296H156.773V127.158ZM165.449 128.652H158.627V131.784H165.449V128.652ZM155.171 117.852H157.061V124.494H155.171V117.852ZM155.171 123.702H156.503C158.807 123.702 161.255 123.54 163.901 123.018L164.117 124.548C161.399 125.106 158.897 125.268 156.503 125.268H155.171V123.702Z" fill="#262626"/>
<path fill-rule="evenodd" clip-rule="evenodd" d="M93 91.6979C115.4 65.7979 128 46.6278 128 27.2979C128 7.96792 111.667 -9.10817 93 5.46645C75.0333 -9.1 58 7.96792 58 27.2979C58 46.6278 71.3 66.2645 93 91.6979ZM93 45.7333C100.732 45.7333 107 39.4653 107 31.7333C107 24.0013 100.732 17.7333 93 17.7333C85.268 17.7333 79 24.0013 79 31.7333C79 39.4653 85.268 45.7333 93 45.7333Z" fill="url(#paint0_linear_411_4066)"/>
<defs>
<linearGradient id="paint0_linear_411_4066" x1="93" y1="0" x2="93" y2="91.6979" gradientUnits="userSpaceOnUse">
<stop stop-color="#FF8FA3"/>
<stop offset="1" stop-color="#FF224A"/>
</linearGradient>
</defs>
</svg>
