<svg width="20" height="18" viewBox="0 0 20 18" fill="none" xmlns="http://www.w3.org/2000/svg">
<path d="M18.1899 1.81389C17.1226 0.767355 15.7128 0.133228 14.215 0.0259365C12.7173 -0.0813546 11.2301 0.345256 10.0219 1.22879C8.74828 0.29028 7.16305 -0.135285 5.58543 0.0377928C4.0078 0.210871 2.55496 0.969735 1.51947 2.16157C0.483979 3.3534 -0.0572399 4.88968 0.00480014 6.46102C0.0668402 8.03237 0.72753 9.52207 1.85382 10.6301L7.85975 16.6299C8.42281 17.1871 9.18606 17.5 9.98184 17.5C10.7776 17.5 11.5409 17.1871 12.1039 16.6299L18.1099 10.6301C18.7014 10.0576 19.1729 9.37483 19.4972 8.62117C19.8215 7.8675 19.9923 7.05777 19.9997 6.2385C20.0072 5.41923 19.8511 4.60658 19.5405 3.84726C19.23 3.08794 18.771 2.39691 18.1899 1.81389ZM16.7786 9.21199L10.7726 15.1622C10.6796 15.2552 10.5689 15.3289 10.4469 15.3793C10.3249 15.4296 10.1941 15.4555 10.0619 15.4555C9.92978 15.4555 9.79895 15.4296 9.67697 15.3793C9.55499 15.3289 9.44428 15.2552 9.35122 15.1622L3.3453 9.21199C2.56028 8.41699 2.1207 7.34904 2.1207 6.23688C2.1207 5.12472 2.56028 4.05678 3.3453 3.26178C4.14524 2.47931 5.22412 2.04057 6.34826 2.04057C7.47239 2.04057 8.55128 2.47931 9.35122 3.26178C9.44428 3.35473 9.55499 3.42851 9.67697 3.47885C9.79895 3.5292 9.92978 3.55512 10.0619 3.55512C10.1941 3.55512 10.3249 3.5292 10.4469 3.47885C10.5689 3.42851 10.6796 3.35473 10.7726 3.26178C11.5942 2.61409 12.6277 2.28865 13.6759 2.34752C14.7242 2.4064 15.7139 2.84547 16.4563 3.58101C17.1988 4.31655 17.6419 5.29708 17.7014 6.33562C17.7608 7.37416 17.4323 8.39804 16.7786 9.21199Z" fill="currentColor"/>
<path d="M19 7.74998C16.5 12 13.25 14.75 10.25 15.5C5.41751 15.5 3.25 10.25 1.5 7.74998C1.5 3.46978 4.75 0.25 10.25 2.49995C15 0.749963 19 3.46978 19 7.74998Z" fill="currentColor"/>
</svg>
