<svg width="20" height="20" viewBox="0 0 20 20" fill="none" xmlns="http://www.w3.org/2000/svg">
<path d="M15.7479 0.318901L2.16353 5.53284C1.64916 5.72975 1.21329 6.07461 0.907532 6.52659C0.601769 6.97857 0.438914 7.51875 0.438245 8.08317C0.437575 8.6476 0.59912 9.21263 0.903756 9.71138C1.20839 10.2101 1.64336 10.6217 2.15717 10.8974L6.70287 13.3753L9.15392 17.9479C9.42797 18.4665 9.84018 18.9062 10.3412 19.2143C10.8422 19.5223 11.4107 19.6858 11.9786 19.6849C12.71 19.685 13.3948 19.4129 13.9006 18.9215C14.1654 18.6563 14.3712 18.3373 14.5061 17.9829L19.7536 4.36494C19.9562 3.83281 19.9917 3.2405 19.8555 2.66274C19.7194 2.08498 19.4177 1.54765 18.9886 1.11855C18.5595 0.689444 18.0222 0.387789 17.4444 0.251638C16.8667 0.115487 16.2743 0.150939 15.7422 0.353524L15.7479 0.318901ZM12.662 17.1189C12.5962 17.29 12.4814 17.435 12.3309 17.5367C12.1804 17.6385 12.0006 17.6927 11.8128 17.693C11.6328 17.6903 11.4533 17.6383 11.2937 17.5426C11.1341 17.4469 11.0005 17.3112 10.9074 17.1502L8.62199 12.9044L17.8399 3.68649L12.662 17.1189ZM7.17383 11.4562L2.93684 9.21988C2.77584 9.1268 2.64013 8.99322 2.54445 8.83362C2.44876 8.67402 2.39673 8.4945 2.39402 8.31453C2.38572 8.17987 2.405 8.04701 2.45068 7.92412C2.49636 7.80124 2.56748 7.69092 2.65965 7.59997C2.74984 7.51016 2.85858 7.44082 2.97941 7.39606L16.3917 2.23833L7.17383 11.4562Z" fill="black"/>
</svg>
