<svg width="23" height="22" viewBox="0 0 23 22" fill="none" xmlns="http://www.w3.org/2000/svg">
<circle cx="6" cy="6" r="6" fill="#FF5B5B"/>
<path d="M21.9982 15.9181C21.4089 15.7813 20.8533 15.5275 20.3644 15.172C19.8755 14.8165 19.4633 14.3665 19.1523 13.8488C19.0104 13.6396 18.791 13.4952 18.5424 13.4475C18.2938 13.3997 18.0364 13.4524 17.8268 13.5939C17.6171 13.7355 17.4724 13.9544 17.4245 14.2024C17.3766 14.4504 17.4295 14.7073 17.5714 14.9164C18.1627 15.8165 18.9456 16.5755 19.8645 17.1392C19.7358 17.1634 19.596 17.1867 19.4431 17.2108C19.1716 17.2685 18.9256 17.411 18.7408 17.6178C18.5561 17.8245 18.4423 18.0846 18.4159 18.3603C17.7796 18.2521 17.1296 18.2508 16.4928 18.3566C15.8063 18.5078 15.1656 18.8199 14.6239 19.2671C14.0666 19.7602 13.3595 20.0523 12.616 20.0967H12.3671C11.6227 20.0522 10.9149 19.7593 10.3574 19.2653C9.82333 18.824 9.19264 18.5143 8.51636 18.3613C7.87126 18.2585 7.21381 18.2598 6.56911 18.365C6.54394 18.0906 6.43221 17.8312 6.24998 17.6242C6.06774 17.4171 5.8244 17.273 5.55492 17.2127C5.40484 17.1894 5.26688 17.1662 5.14011 17.142C5.78893 16.7675 6.36846 16.2846 6.85342 15.7144C7.07722 15.4554 7.27984 15.1789 7.45933 14.8876C7.59327 14.6735 7.63655 14.4151 7.57965 14.1692C7.52275 13.9233 7.37033 13.71 7.15588 13.5761C6.94142 13.4423 6.68248 13.3989 6.43595 13.4554C6.18941 13.5119 5.97546 13.6638 5.84109 13.8776C5.71393 14.084 5.57088 14.2802 5.41323 14.4645C4.8032 15.2266 3.93797 15.7434 2.97657 15.92C2.69753 15.9641 2.44396 16.1076 2.2628 16.3239C2.08164 16.5402 1.98517 16.8146 1.99124 17.0964C1.99092 17.2716 2.02843 17.4448 2.10124 17.6042C2.40232 18.2859 3.20398 18.7166 4.75881 19.0086L4.78865 19.1323C4.81569 19.2448 4.84364 19.3592 4.87627 19.4634C4.94945 19.728 5.10942 19.9604 5.33062 20.1236C5.55181 20.2868 5.82146 20.3713 6.09647 20.3636C6.29077 20.3587 6.48382 20.3309 6.67161 20.2809C7.17093 20.1799 7.68391 20.1651 8.18824 20.2371C8.58373 20.354 8.94936 20.5545 9.26022 20.8249C10.1377 21.5477 11.2299 21.9613 12.3671 22.0015H12.616C13.7603 21.9595 14.8587 21.5417 15.7406 20.8129C16.0529 20.5417 16.422 20.3434 16.821 20.2326C17.0176 20.198 17.2169 20.1812 17.4166 20.1824C17.7233 20.1818 18.0291 20.2158 18.3282 20.2837C18.522 20.3198 18.7184 20.34 18.9155 20.3442C19.1836 20.3514 19.4463 20.2687 19.6618 20.1094C19.8772 19.9501 20.0329 19.7233 20.104 19.4653C20.1404 19.3491 20.1683 19.2375 20.1944 19.1277L20.2242 19.0096C21.7744 18.7185 22.5789 18.2907 22.866 17.6378C22.9386 17.496 22.98 17.3403 22.9872 17.1812C23.0108 16.8853 22.9223 16.5914 22.7392 16.3575C22.5561 16.1236 22.2916 15.9668 21.9982 15.9181ZM4.67399 11.6651C4.8693 11.702 5.07127 11.6774 5.25196 11.5947C5.43265 11.5121 5.58314 11.3755 5.68259 11.2038C6.06067 11.3957 6.4753 11.5054 6.89906 11.5255C7.34866 11.5315 7.78257 11.3608 8.10714 11.0503C8.20982 10.9548 8.29012 10.8378 8.34232 10.7078C8.39452 10.5777 8.41734 10.4378 8.40915 10.298L8.37467 9.72506C8.21831 8.59474 8.26886 7.44549 8.52385 6.33318C8.84597 5.60259 9.37695 4.98304 10.0503 4.55209C10.7237 4.12114 11.5095 3.89795 12.3093 3.91045L12.6794 3.90672C13.4786 3.89608 14.2632 4.12042 14.9354 4.55175C15.6076 4.98309 16.1376 5.60234 16.4594 6.33225C16.7144 7.44549 16.7649 8.59563 16.6085 9.72686L16.5992 9.88218L16.5731 10.3044C16.5678 10.4419 16.5916 10.579 16.643 10.7068C16.6944 10.8345 16.7722 10.95 16.8714 11.0457C17.1926 11.3547 17.622 11.5265 18.0683 11.5246C18.4825 11.4885 18.8853 11.3703 19.253 11.1768C19.3276 11.3462 19.45 11.4904 19.6052 11.5916C19.7605 11.6928 19.9419 11.7468 20.1274 11.7469H20.1442C20.3973 11.7424 20.6383 11.6378 20.8142 11.4561C20.9901 11.2744 21.0864 11.0304 21.0819 10.7778C21.0572 10.4598 20.9355 10.1569 20.7332 9.90986C20.5309 9.66282 20.2577 9.48343 19.9503 9.39577C19.7264 9.30429 19.4865 9.25809 19.2445 9.25985C19.0026 9.26161 18.7634 9.31129 18.5409 9.40601C18.7081 8.11355 18.5927 6.80028 18.2025 5.5566C17.7328 4.48705 16.9574 3.5794 15.9734 2.94717C14.9894 2.31493 13.8404 1.98618 12.6701 2.00201L12.2954 2.00573C11.1281 1.9915 9.9824 2.32081 9.00159 2.95251C8.02077 3.58422 7.24829 4.4903 6.78067 5.55753C6.38757 6.81792 6.27308 8.14836 6.4451 9.45716C6.41247 9.44227 6.37705 9.42554 6.33883 9.40786C6.10558 9.31369 5.85532 9.26875 5.6038 9.27587C5.35228 9.28299 5.10496 9.34201 4.87744 9.44922C4.64992 9.55643 4.44713 9.7095 4.28184 9.89879C4.11655 10.0881 3.99236 10.3095 3.91708 10.549C3.86938 10.7971 3.92229 11.054 4.0642 11.2632C4.2061 11.4724 4.42541 11.617 4.67399 11.6651Z" fill="black"/>
</svg>
